<svg width="48" height="48" viewBox="0 0 48 48" fill="none" xmlns="http://www.w3.org/2000/svg">
<path d="M30.5 40.5C30.5 41.6457 29.4516 43.1445 26.6771 44.4451C24.0221 45.6896 20.2488 46.5 16 46.5C11.7512 46.5 7.97793 45.6896 5.32294 44.4451C2.54839 43.1445 1.5 41.6457 1.5 40.5C1.5 39.3543 2.54839 37.8555 5.32294 36.5549C7.97793 35.3104 11.7512 34.5 16 34.5C20.2488 34.5 24.0221 35.3104 26.6771 36.5549C29.4516 37.8555 30.5 39.3543 30.5 40.5Z" stroke="#152C5B" stroke-width="3"/>
<path d="M28.5 10.8837C28.5 12.2127 28.14 14.7436 27.4363 17.8744C26.7403 20.9711 25.7328 24.5468 24.4913 27.9291C23.2441 31.3272 21.7882 34.4544 20.2193 36.7032C18.5819 39.05 17.1333 40 16 40C14.8667 40 13.4181 39.05 11.7807 36.7032C10.2118 34.4544 8.75586 31.3272 7.50865 27.9291C6.26722 24.5468 5.25968 20.9711 4.56368 17.8744C3.86 14.7436 3.5 12.2127 3.5 10.8837C3.5 6.03078 8.72305 1.5 16 1.5C23.277 1.5 28.5 6.03078 28.5 10.8837Z" fill="white" stroke="#152C5B" stroke-width="3"/>
<circle cx="16" cy="14" r="4.5" stroke="#FF498B" stroke-width="3"/>
</svg>
