<svg width="48" height="48" viewBox="0 0 48 48" fill="none" xmlns="http://www.w3.org/2000/svg">
<path d="M18 13V16V19" stroke="#152C5B" stroke-width="3" stroke-linecap="round"/>
<path d="M30 13V16V19" stroke="#152C5B" stroke-width="3" stroke-linecap="round"/>
<path d="M5.83354 20.9514C6.2424 20.0665 7.12825 19.5 8.10298 19.5H40.0672C41.0551 19.5 41.9504 20.0818 42.3517 20.9847L44.1295 24.9847C44.8642 26.6379 43.6541 28.5 41.845 28.5H6.25468C4.42972 28.5 3.21975 26.608 3.98525 24.9514L5.83354 20.9514Z" stroke="#152C5B" stroke-width="3"/>
<mask id="path-4-inside-1_67_21" fill="white">
<path d="M9 46C6.79086 46 5 44.2091 5 42L5 28C5 27.4477 5.44772 27 6 27H12C12.5523 27 13 27.4477 13 28L13 42C13 44.2091 11.2091 46 9 46Z"/>
</mask>
<path d="M9 46C6.79086 46 5 44.2091 5 42L5 28C5 27.4477 5.44772 27 6 27H12C12.5523 27 13 27.4477 13 28L13 42C13 44.2091 11.2091 46 9 46Z" stroke="#152C5B" stroke-width="6" mask="url(#path-4-inside-1_67_21)"/>
<mask id="path-5-inside-2_67_21" fill="white">
<path d="M18 13C15.7909 13 14 11.2091 14 9V4C14 3.44772 14.4477 3 15 3H21C21.5523 3 22 3.44771 22 4V9C22 11.2091 20.2091 13 18 13Z"/>
</mask>
<path d="M18 13C15.7909 13 14 11.2091 14 9V4C14 3.44772 14.4477 3 15 3H21C21.5523 3 22 3.44771 22 4V9C22 11.2091 20.2091 13 18 13Z" stroke="#FF498B" stroke-width="6" mask="url(#path-5-inside-2_67_21)"/>
<mask id="path-6-inside-3_67_21" fill="white">
<path d="M30 13C27.7909 13 26 11.2091 26 9V4C26 3.44772 26.4477 3 27 3H33C33.5523 3 34 3.44771 34 4V9C34 11.2091 32.2091 13 30 13Z"/>
</mask>
<path d="M30 13C27.7909 13 26 11.2091 26 9V4C26 3.44772 26.4477 3 27 3H33C33.5523 3 34 3.44771 34 4V9C34 11.2091 32.2091 13 30 13Z" stroke="#FF498B" stroke-width="6" mask="url(#path-6-inside-3_67_21)"/>
<mask id="path-7-inside-4_67_21" fill="white">
<path d="M39 46C36.7909 46 35 44.2091 35 42V28C35 27.4477 35.4477 27 36 27H42C42.5523 27 43 27.4477 43 28V42C43 44.2091 41.2091 46 39 46Z"/>
</mask>
<path d="M39 46C36.7909 46 35 44.2091 35 42V28C35 27.4477 35.4477 27 36 27H42C42.5523 27 43 27.4477 43 28V42C43 44.2091 41.2091 46 39 46Z" stroke="#152C5B" stroke-width="6" mask="url(#path-7-inside-4_67_21)"/>
</svg>
